<svg xmlns="http://www.w3.org/2000/svg" width="27" height="24" fill="none"><path fill="#0B457F" d="M13.5.5C2.786.5-.098 4.445.598 12.288 1.294 20.131 4.092 23.5 13.5 23.5s12.206-3.385 12.902-11.212C27.098 4.461 24.214.5 13.5.5Zm5.411 1.799c-2.095 5.334-4.406 10.257-5.156 11.883a.282.282 0 0 1-.255.17.282.282 0 0 1-.255-.17c-.773-1.578-3.092-6.55-5.156-11.883a.12.12 0 0 1 .034-.135.115.115 0 0 1 .043-.023c3.527-.62 7.133-.62 10.66 0a.116.116 0 0 1 .093.108.118.118 0 0 1-.008.05Zm-17.17 9.87c-.316-3.645.194-6.075 1.617-7.66a7.306 7.306 0 0 1 3.3-1.981.106.106 0 0 1 .104.014.11.11 0 0 1 .043.096v7.165a7.217 7.217 0 0 0 .85 3.408l4.747 8.9a.12.12 0 0 1-.044.158.114.114 0 0 1-.056.016c-3.703-.134-6.185-.892-7.73-2.367-1.547-1.476-2.459-3.882-2.807-7.764l-.023.016Zm23.532-.015c-.34 3.882-1.205 6.312-2.798 7.764-1.592 1.452-4.05 2.217-7.73 2.367a.107.107 0 0 1-.106-.048.112.112 0 0 1-.003-.118l4.755-8.908a7.217 7.217 0 0 0 .85-3.408V2.638a.11.11 0 0 1 .093-.117.106.106 0 0 1 .054.007 7.352 7.352 0 0 1 3.3 1.98c1.423 1.578 1.933 4.016 1.609 7.662"/></svg>