<svg xmlns="http://www.w3.org/2000/svg" width="209" height="26" fill="none"><path fill="#0B457F" d="M26.276 4.08c1.72 1.952 2.335 4.872 1.969 9.184-.397 4.576-1.424 7.416-3.338 9.216-2.062 1.944-5.369 2.848-10.403 2.848-5.034 0-8.35-.904-10.403-2.848-1.914-1.8-2.95-4.64-3.346-9.216-.374-4.32.257-7.2 1.976-9.184C4.762 1.784 8.481.664 14.504.664c6.022 0 9.742 1.12 11.772 3.416ZM14.504 0C2.498 0-.661 4.488.109 13.32.879 22.152 3.999 26 14.504 26c10.504 0 13.617-3.848 14.387-12.648.77-8.8-2.381-13.32-14.387-13.32"/><path fill="#0B457F" d="M14.5 1.5C3.786 1.5.902 5.445 1.598 13.288 2.294 21.131 5.092 24.5 14.5 24.5s12.206-3.385 12.902-11.212C28.098 5.461 25.214 1.5 14.5 1.5Zm5.411 1.799c-2.095 5.334-4.406 10.257-5.156 11.883a.282.282 0 0 1-.255.17.282.282 0 0 1-.255-.17c-.773-1.578-3.092-6.55-5.156-11.883a.12.12 0 0 1 .034-.135.115.115 0 0 1 .043-.023c3.527-.62 7.133-.62 10.66 0a.116.116 0 0 1 .093.108.118.118 0 0 1-.008.05Zm-17.17 9.87c-.316-3.645.194-6.075 1.617-7.66a7.306 7.306 0 0 1 3.3-1.981.106.106 0 0 1 .104.014.11.11 0 0 1 .043.096v7.165a7.217 7.217 0 0 0 .85 3.408l4.747 8.9a.12.12 0 0 1-.044.158.114.114 0 0 1-.056.016c-3.703-.134-6.185-.892-7.73-2.367-1.547-1.476-2.459-3.882-2.807-7.764l-.023.016Zm23.532-.015c-.34 3.882-1.205 6.312-2.798 7.764-1.592 1.452-4.05 2.217-7.73 2.367a.107.107 0 0 1-.106-.048.112.112 0 0 1-.003-.118l4.755-8.908a7.217 7.217 0 0 0 .85-3.408V3.638a.11.11 0 0 1 .093-.117.106.106 0 0 1 .054.007 7.352 7.352 0 0 1 3.3 1.98c1.423 1.578 1.933 4.016 1.609 7.662M43.584 18C39.456 18 37 16.62 37 12.413 37 8.594 39.456 7 43.688 7h5.272v2.849h-4.984c-1.968 0-2.616.552-2.616 2.564 0 2.21.648 2.738 2.712 2.738H49V18h-5.416ZM65 7v11h-4.182v-4.135H56.19V18H52V7h4.19v3.906h4.628V7H65ZM67 18l4.437-10.983h3.686a1.44 1.44 0 0 1 .965.189c.29.174.513.446.63.768L81 18h-4.336l-2.757-6.768c-.194-.482-.472-.482-.666 0L70.516 18H67ZM91.96 17.39l-5.182-4.8c-.211-.197-.352-.142-.352.157v5.21H83V7.009h2.164a2.397 2.397 0 0 1 1.685.497l5.378 4.981c.211.19.352.055.352-.173V7.009h3.418v10.46a.478.478 0 0 1-.525.528h-1.803a2.454 2.454 0 0 1-1.709-.568M111.484 17.997h-6.085c-4.225 0-6.399-1.396-6.399-5.6C99 8.648 101.212 7 105.499 7h6.498v2.832h-6.33c-2.021 0-2.549.513-2.549 2.564 0 2.28.528 2.824 2.641 2.824h2.365a.247.247 0 0 0 .203-.075.27.27 0 0 0 .073-.209v-.954a.271.271 0 0 0-.168-.267.252.252 0 0 0-.108-.017h-1.906V11.33h5.266a.457.457 0 0 1 .379.139.482.482 0 0 1 .134.39v5.609a.486.486 0 0 1-.308.503.455.455 0 0 1-.205.025ZM114 17.96l4.442-10.943h3.7c.332-.052.673.014.964.188.29.174.513.444.63.766L128 18h-4.334l-2.755-6.744c-.193-.48-.472-.48-.666 0l-2.747 6.705H114ZM139.955 17.39l-5.179-4.8c-.211-.197-.352-.142-.352.157v5.21H131V7.009h2.162a2.396 2.396 0 0 1 1.685.497l5.375 4.981c.203.19.352.055.352-.173V7.009h3.424v10.46a.489.489 0 0 1-.533.527h-1.763a2.453 2.453 0 0 1-1.708-.567M150 17.96l4.45-10.943h3.682c.333-.052.674.014.966.188.29.174.514.444.631.766L164 18h-4.341l-2.768-6.744c-.186-.48-.465-.48-.658 0L153.504 18 150 17.96ZM178 7v6.124c0 3.827-2.589 4.876-6.5 4.876s-6.5-1.049-6.5-4.876V7h4.142v5.611c0 2.159 1.187 2.656 2.701 2.656 1.513 0 2.692-.497 2.692-2.656V7H178ZM181 7h12v2.951h-3.992V18h-4.016V9.951H181V7ZM209 12.984c0 4.22-2.497 6.016-7.5 6.016s-7.5-1.795-7.5-6.016S196.585 7 201.5 7s7.5 1.747 7.5 5.984Zm-10.678 0c0 2.232.801 3.113 3.202 3.113s3.202-.881 3.202-3.113-.801-3.081-3.202-3.081-3.202.809-3.202 3.08Z"/></svg>